<svg xmlns="http://www.w3.org/2000/svg" width="80" height="80" xmlns:v="https://vecta.io/nano"><g fill="#4e48e0"><path d="M79.273 27.246c-.312-.454-.831-.687-1.355-.687H48.112L62.975 2.801c.383-.61.404-1.445-.06-2.115C62.599.232 62.075 0 61.549 0H35.883c-2.577 0-4.985 1.382-6.428 3.689L.285 50.316c-.382.611-.398 1.446.062 2.115.311.454.831.686 1.355.686h29.791L16.628 76.881c-.268.429-.349.968-.227 1.482.188.796.893 1.319 1.654 1.319h25.652c2.596 0 5.022-1.393 6.476-3.717l14.289-22.848h.001l14.862-23.757c.382-.61.398-1.446-.061-2.115"/><path d="M64.474 53.113L50.182 75.965c-1.454 2.325-3.88 3.717-6.476 3.717H18.054c-.761 0-1.466-.522-1.654-1.319-.122-.514-.04-1.054.227-1.482l14.867-23.769h32.979z"/></g><path d="M48.093 26.559h29.825c.523 0 1.043.233 1.355.687.46.669.443 1.505.062 2.115L64.472 53.118H31.48l16.613-26.559z" fill="#1c81c1"/><path d="M1.701 53.118c-.523 0-1.043-.232-1.354-.686-.46-.67-.444-1.505-.062-2.115l29.17-46.628C30.898 1.382 33.306 0 35.882 0h25.667c.526 0 1.051.232 1.366.687.464.67.443 1.505.06 2.115l-31.48 50.316H1.701z" fill="#5cc4cd"/></svg>