<svg width="25" height="25" viewBox="0 0 25 25" fill="none" xmlns="http://www.w3.org/2000/svg">
<g clip-path="url(#clip0_17_2484)">
<path d="M5.083 17.8876C4.053 16.7936 3.5 15.5666 3.5 13.5776C3.5 10.0776 5.957 6.94065 9.53 5.38965L10.423 6.76765C7.088 8.57165 6.436 10.9126 6.176 12.3886C6.713 12.1106 7.416 12.0136 8.105 12.0776C9.909 12.2446 11.331 13.7256 11.331 15.5666C11.331 16.4949 10.9623 17.3851 10.3059 18.0415C9.6495 18.6979 8.75926 19.0666 7.831 19.0666C6.758 19.0666 5.732 18.5766 5.083 17.8876ZM15.083 17.8876C14.053 16.7936 13.5 15.5666 13.5 13.5776C13.5 10.0776 15.957 6.94065 19.53 5.38965L20.423 6.76765C17.088 8.57165 16.436 10.9126 16.176 12.3886C16.713 12.1106 17.416 12.0136 18.105 12.0776C19.909 12.2446 21.331 13.7256 21.331 15.5666C21.331 16.4949 20.9623 17.3851 20.3059 18.0415C19.6495 18.6979 18.7593 19.0666 17.831 19.0666C16.758 19.0666 15.732 18.5766 15.083 17.8876Z" fill="black"/>
</g>
<defs>
<clipPath id="clip0_17_2484">
<rect width="24" height="24" fill="white" transform="translate(0.5 0.56665)"/>
</clipPath>
</defs>
</svg>
